<?xml version="1.0" encoding="UTF-8"?><svg id="Layer_2" xmlns="http://www.w3.org/2000/svg" viewBox="0 0 2647.11 2613.03"><g><path d="M443.9,858.83c0,103.99,7.4,205.11,22.05,301.99-31.63-11.61-63.19-17.16-93.5-17.16-77.24,0-146.39,36-188.01,99.51-91.16,139.08-21.63,366.43,48.95,478.91,100.92,160.82,261.1,177.84,425.91,195.34,46.99,4.99,87.13,9.25,120.17,9.25,20.09,0,37.55-1.58,52.35-5.52,158.54,144.69,364.49,229.47,615.65,229.47,685.37,0,1003.57-578.36,1003.57-1291.79H443.9Zm19.66,901.04c-57.08-20.68-96.5-52.15-127.8-102.03-24.57-39.15-55.42-108.37-68.31-185.24-11.68-69.63-5.27-127.59,18.06-163.18,18.98-28.96,49.85-44.91,86.93-44.91,39.88,0,82.86,18.61,122.04,52.63,1.23,1.77,2.43,3.52,3.65,5.28,46.02,183.98,121.07,347.68,224.17,479.96-15.52-1.45-32.37-3.24-50.24-5.14-76.65-8.14-149.05-15.83-208.51-37.38Z" fill="#564338"/><g><path d="M1447.48,1201.65c-132.53,0-260.99-10.23-381.8-30.42-115.8-19.35-219.47-46.91-308.14-81.94-84.68-33.45-153.21-73.33-198.19-115.33-41.04-38.33-61.85-77.07-61.85-115.14s20.81-76.81,61.85-115.14c44.97-42,113.5-81.88,198.19-115.33,88.67-35.03,192.34-62.59,308.14-81.94,120.82-20.19,249.27-30.42,381.8-30.42s260.99,10.23,381.81,30.42c115.8,19.35,219.47,46.91,308.14,81.94,84.68,33.45,153.21,73.33,198.19,115.33,41.04,38.33,61.85,77.07,61.85,115.14s-20.81,76.81-61.85,115.14c-44.97,42-113.5,81.88-198.19,115.33-88.67,35.03-192.34,62.59-308.14,81.94-120.82,20.19-249.27,30.42-381.81,30.42Z" fill="#d1a974"/><path d="M1447.48,569.58c129.58,0,255.07,9.99,372.97,29.69,112.09,18.73,212.11,45.28,297.28,78.93,78.5,31.01,141.19,67.2,181.3,104.65,20.46,19.11,44.84,47.79,44.84,75.98s-24.39,56.87-44.84,75.98c-40.11,37.46-102.8,73.65-181.3,104.65-85.17,33.64-185.19,60.2-297.28,78.93-117.91,19.7-243.39,29.69-372.97,29.69s-255.07-9.99-372.97-29.69c-112.09-18.73-212.11-45.28-297.29-78.93-78.49-31.01-141.19-67.2-181.3-104.65-20.46-19.11-44.84-47.79-44.84-75.98s24.39-56.87,44.84-75.98c40.11-37.46,102.8-73.65,181.3-104.65,85.17-33.64,185.2-60.2,297.29-78.93,117.91-19.7,243.39-29.69,372.97-29.69m0-107.17c-554.26,0-1003.57,177.48-1003.57,396.41s449.31,396.41,1003.57,396.41,1003.57-177.48,1003.57-396.41-449.31-396.41-1003.57-396.41h0Z" fill="#725b50"/></g><path d="M1274.74,858.83c-127.77-86.49-98.32-114.05-96.52-131.16,4.37-41.54,45.31-71.46,116.1-60.38,76.35,11.95,126.94,80.59,133.26,91.38,27.64-63.6,76.3-105.57,135.99-101.17,56.33,4.15,115.54,46.89,117.49,93.01,1.56,36.85-34.84,64.23-107.7,117.49-57.1,41.74-109.11,69.91-146.86,88.12-36.49-22.11-89.31-55.03-151.76-97.3Z" fill="#ffe3c2"/><path d="M1046.05,809.43c-5.87,11.85,65.77,63.95,137.07,97.91,74.32,35.4,142.86,48.51,190.92,53.85-41.79-33.95-103.7-77.42-186.03-112.6-53.64-22.92-136.13-50.95-141.97-39.16Z" fill="#ffe3c2"/><path d="M1045.72,973.02c-1.02,13.18,84.9,34.74,163.73,39.6,82.16,5.07,150.63-8.38,197.22-21.38-51.45-15.87-125.11-33.07-214.62-34.94-58.32-1.22-145.31,3.61-146.32,16.72Z" fill="#ffe3c2"/><path d="M1818.21,809.43c5.94,11.85-66.52,63.95-138.63,97.91-75.16,35.4-144.48,48.51-193.09,53.85,42.27-33.95,104.88-77.42,188.14-112.6,54.25-22.92,137.68-50.95,143.58-39.16Z" fill="#ffe3c2"/><path d="M1818.54,973.02c1.03,13.18-85.86,34.74-165.59,39.6-83.1,5.07-152.34-8.38-199.45-21.38,52.04-15.87,126.53-33.07,217.06-34.94,58.98-1.22,146.96,3.61,147.98,16.72Z" fill="#ffe3c2"/><path d="M771.59,806.64c-63.43,39.97-76.13,71.26-75.06,93.01,4.43,90.47,253.41,150.98,386.74,169.71,141.72,19.91,261.95,7.94,344.31-6.53-136.48,2.06-247.91-15.34-326.36-32.64-219-48.27-273.25-115.97-290.46-140.34-22-31.14-33.15-61.72-39.16-83.22Z" fill="#ffe3c2"/><path d="M2083.58,806.64c63.43,39.97,76.13,71.26,75.06,93.01-4.43,90.47-253.41,150.98-386.74,169.71-141.72,19.91-261.95,7.94-344.31-6.53,136.48,2.06,247.91-15.34,326.36-32.64,219-48.27,273.25-115.97,290.46-140.34,22-31.14,33.15-61.72,39.16-83.22Z" fill="#ffe3c2"/><path d="M1047.68,913.7c-7.06,11.58-191.82-50.17-189.29-120.75,2.87-79.99,244.42-119.82,246.41-114.23,1.62,4.57-157.37,36.7-164.81,107.7-6.69,63.85,113.56,117.67,107.7,127.28Z" fill="#ffe3c2"/><path d="M1806.75,923.7c8.14,11.58,221.28-50.17,218.36-120.75-3.31-79.99-281.96-119.82-284.24-114.23-1.87,4.57,181.54,36.7,190.12,107.7,7.72,63.85-130.99,117.67-124.24,127.28Z" fill="#ffe3c2"/><path d="M2075.89,1322.91c-.1-6.64,4.52-12.4,11.01-13.83,34.1-7.5,77.46-20.64,124.27-44.54,29.2-14.91,54.1-31.13,74.88-46.69,10.69-8.01,25.46,2.1,21.88,14.97-39.73,142.9-93.66,252.09-135.93,325.45-61.58,106.88-147.89,256.68-318.21,362.26-132.76,82.3-287.49,119.72-298.62,97.91-6.41-12.56,105.21-5.55,210.51-91.77,185.02-151.52,210.01-264.8,259.46-363.51,23.65-47.22,52.41-125.24,50.75-240.25Z" fill="#684f43"/></g><circle cx="1103.91" cy="1567.67" r="98.97" fill="#262320"/><circle cx="1751.26" cy="1567.67" r="98.97" fill="#262320"/><path d="M1339.47,1702.38c4.7-4.93,36.83-37.52,87.32-35.23,48.12,2.18,76.54,34.38,81.19,39.83" fill="none" stroke="#262320" stroke-linecap="round" stroke-miterlimit="10" stroke-width="40"/><circle cx="1131.69" cy="1531.61" r="26.89" fill="#ffe3c2"/><circle cx="1793.14" cy="1531.61" r="26.89" fill="#ffe3c2"/></svg>